<svg xmlns="http://www.w3.org/2000/svg" viewBox="0 0 90.06 77.48"><defs><style>.cls-1{fill:none;stroke:#fff;stroke-linecap:round;stroke-linejoin:round;stroke-width:2px;}</style></defs><g id="Слой_2" data-name="Слой 2"><g id="Перемена_2021" data-name="Перемена 2021"><line class="cls-1" x1="63.9" y1="32.38" x2="63.9" y2="38.74"/><line class="cls-1" x1="51.32" y1="19.8" x2="51.32" y2="26.16"/><line class="cls-1" x1="51.32" y1="26.16" x2="63.9" y2="32.38"/><polyline class="cls-1" points="13.58 26.16 1 19.8 1 13.58"/><line class="cls-1" x1="1" y1="13.58" x2="13.58" y2="19.8"/><line class="cls-1" x1="13.58" y1="19.8" x2="13.58" y2="26.16"/><polyline class="cls-1" points="26.16 38.74 13.58 32.38 13.58 26.16"/><line class="cls-1" x1="38.74" y1="7.22" x2="38.74" y2="13.58"/><line class="cls-1" x1="26.16" y1="32.38" x2="26.16" y2="38.74"/><line class="cls-1" x1="13.58" y1="26.16" x2="26.16" y2="32.38"/><line class="cls-1" x1="38.74" y1="13.58" x2="13.58" y2="26.16"/><line class="cls-1" x1="13.58" y1="19.8" x2="38.74" y2="7.22"/><polyline class="cls-1" points="1 13.58 26.16 1 38.74 7.22"/><polyline class="cls-1" points="51.32 63.9 38.74 57.54 38.74 51.32"/><line class="cls-1" x1="38.74" y1="44.96" x2="38.74" y2="51.32"/><polyline class="cls-1" points="38.74 51.32 26.16 44.96 26.16 38.74"/><polyline class="cls-1" points="89.06 57.54 89.06 63.9 63.9 76.48"/><line class="cls-1" x1="76.48" y1="44.96" x2="51.32" y2="57.54"/><line class="cls-1" x1="76.48" y1="44.96" x2="76.48" y2="51.32"/><line class="cls-1" x1="51.32" y1="63.9" x2="51.32" y2="57.54"/><polyline class="cls-1" points="63.9 76.48 51.32 70.12 51.32 63.9"/><line class="cls-1" x1="51.32" y1="63.9" x2="63.9" y2="70.12"/><line class="cls-1" x1="63.9" y1="70.12" x2="63.9" y2="76.48"/><line class="cls-1" x1="76.48" y1="51.32" x2="51.32" y2="63.9"/><line class="cls-1" x1="63.9" y1="70.12" x2="89.06" y2="57.54"/><line class="cls-1" x1="76.48" y1="51.32" x2="89.06" y2="57.54"/><line class="cls-1" x1="51.32" y1="26.16" x2="26.16" y2="38.74"/><line class="cls-1" x1="63.9" y1="32.38" x2="38.74" y2="44.96"/><line class="cls-1" x1="38.74" y1="51.32" x2="63.9" y2="38.74"/><line class="cls-1" x1="51.32" y1="57.54" x2="38.74" y2="51.32"/><line class="cls-1" x1="38.74" y1="44.96" x2="26.16" y2="38.74"/><line class="cls-1" x1="63.9" y1="38.74" x2="76.48" y2="44.96"/><line class="cls-1" x1="26.16" y1="32.38" x2="51.32" y2="19.8"/><line class="cls-1" x1="38.74" y1="13.58" x2="51.32" y2="19.8"/></g></g></svg>