<svg xmlns="http://www.w3.org/2000/svg" viewBox="0 0 69.07 77.36"><defs><style>.cls-1{fill:none;stroke:#fff;stroke-linecap:round;stroke-linejoin:round;stroke-width:2px;}</style></defs><g id="Слой_2" data-name="Слой 2"><g id="Перемена_2021" data-name="Перемена 2021"><polyline class="cls-1" points="34.53 76.36 42.82 72.21 51.11 68.07 68.07 59.59 68.07 42.82 68.07 26.06 51.11 17.77"/><line class="cls-1" x1="51.11" y1="68.07" x2="51.11" y2="42.82"/><line class="cls-1" x1="42.82" y1="13.62" x2="34.53" y2="9.29"/><line class="cls-1" x1="34.53" y1="9.29" x2="26.06" y2="5.14"/><polyline class="cls-1" points="26.06 5.14 17.77 1 1 26.06"/><polyline class="cls-1" points="17.77 42.82 9.48 38.68 9.48 55.45 17.77 59.59"/><polyline class="cls-1" points="26.25 55.45 26.25 46.97 17.77 42.82"/><line class="cls-1" x1="17.77" y1="51.11" x2="17.77" y2="42.82"/><line class="cls-1" x1="17.77" y1="34.35" x2="26.24" y2="38.68"/><polyline class="cls-1" points="34.53 9.29 17.96 34.35 17.77 34.35"/><polyline class="cls-1" points="17.77 59.59 26.25 63.73 26.25 55.45"/><line class="cls-1" x1="17.77" y1="59.59" x2="17.77" y2="51.11"/><line class="cls-1" x1="26.24" y1="38.68" x2="34.53" y2="42.82"/><line class="cls-1" x1="42.82" y1="46.97" x2="42.82" y2="72.21"/><line class="cls-1" x1="26.24" y1="55.45" x2="17.77" y2="51.11"/><line class="cls-1" x1="9.48" y1="30.2" x2="17.77" y2="34.35"/><line class="cls-1" x1="26.06" y1="5.14" x2="9.48" y2="30.2"/><line class="cls-1" x1="42.82" y1="13.62" x2="26.24" y2="38.68"/><polyline class="cls-1" points="1 26.06 1 59.59 34.53 76.36"/><line class="cls-1" x1="1" y1="26.06" x2="9.48" y2="30.2"/><line class="cls-1" x1="34.53" y1="42.82" x2="34.53" y2="76.36"/><line class="cls-1" x1="51.11" y1="17.77" x2="34.53" y2="42.82"/><line class="cls-1" x1="51.11" y1="42.82" x2="42.82" y2="46.97"/><line class="cls-1" x1="51.11" y1="17.77" x2="42.82" y2="13.62"/></g></g></svg>