<svg xmlns="http://www.w3.org/2000/svg" viewBox="0 0 60.06 91.59"><defs><style>.cls-1{fill:none;stroke:#fff;stroke-linecap:round;stroke-linejoin:round;stroke-width:2px;}</style></defs><g id="Слой_2" data-name="Слой 2"><g id="Перемена_2021" data-name="Перемена 2021"><path class="cls-1" d="M56.55,80.67a5.07,5.07,0,0,0-5.13-5.13A5,5,0,0,0,47.88,77a4.81,4.81,0,0,0-1.48,3.64,5.05,5.05,0,0,0,5,5,4.85,4.85,0,0,0,3.65-1.48,5,5,0,0,0,1.48-3.54"/><polyline class="cls-1" points="26.63 37.47 26.63 88.08 31.76 90.59"/><line class="cls-1" x1="26.63" y1="37.46" x2="26.74" y2="37.46"/><line class="cls-1" x1="26.74" y1="37.46" x2="26.63" y2="37.46"/><polyline class="cls-1" points="26.74 37.47 31.76 34.96 36.77 37.47"/><line class="cls-1" x1="36.77" y1="37.46" x2="31.76" y2="39.97"/><polyline class="cls-1" points="31.76 90.59 36.77 88.08 36.77 37.47"/><line class="cls-1" x1="31.76" y1="90.59" x2="31.76" y2="39.97"/><line class="cls-1" x1="31.76" y1="39.97" x2="26.74" y2="37.46"/><polyline class="cls-1" points="48.91 12.12 48.91 62.74 54.04 65.25"/><line class="cls-1" x1="48.91" y1="12.12" x2="49.02" y2="12.12"/><line class="cls-1" x1="49.02" y1="12.12" x2="48.91" y2="12.12"/><polyline class="cls-1" points="49.02 12.12 54.04 9.61 59.06 12.12"/><line class="cls-1" x1="59.06" y1="12.12" x2="54.04" y2="14.63"/><polyline class="cls-1" points="54.04 65.25 59.06 62.74 59.06 12.12"/><line class="cls-1" x1="54.04" y1="65.25" x2="54.04" y2="14.63"/><line class="cls-1" x1="54.04" y1="14.63" x2="49.02" y2="12.12"/><path class="cls-1" d="M17.89,50.07a5.28,5.28,0,0,0-1.63-3.58,5.28,5.28,0,0,0-3.71-1.33,5,5,0,0,0-3.47,1.62,4.84,4.84,0,0,0-1.33,3.71A4.58,4.58,0,0,0,9.38,54,4.58,4.58,0,0,0,13,55.3a4.86,4.86,0,0,0,3.58-1.63,5,5,0,0,0,1.34-3.6"/><path class="cls-1" d="M11.15,28.93a5.26,5.26,0,0,0-1.49-3.65A5.25,5.25,0,0,0,6,23.8a5,5,0,0,0-3.54,1.48A4.85,4.85,0,0,0,1,28.93a4.61,4.61,0,0,0,1.48,3.54A4.6,4.6,0,0,0,6,34a4.81,4.81,0,0,0,3.64-1.48,5,5,0,0,0,1.49-3.54"/><line class="cls-1" x1="31.87" y1="1" x2="41.9" y2="21.29"/><line class="cls-1" x1="21.72" y1="21.29" x2="31.87" y2="1"/><line class="cls-1" x1="31.87" y1="26.31" x2="21.72" y2="21.29"/><line class="cls-1" x1="31.87" y1="1" x2="31.87" y2="26.31"/><line class="cls-1" x1="31.87" y1="26.31" x2="41.9" y2="21.29"/></g></g></svg>