<svg xmlns="http://www.w3.org/2000/svg" viewBox="0 0 24.52 49.03"><defs><style>.cls-1{fill:#fff;}</style></defs><g id="Слой_2" data-name="Слой 2"><g id="Перемена_2021" data-name="Перемена 2021"><g id="_1" data-name="1"><path class="cls-1" d="M5.62,43.68a.36.36,0,0,0-.16.31.42.42,0,0,0,.13.31.49.49,0,0,0,.34.13.73.73,0,0,0,.44-.15A.59.59,0,0,0,6.58,44a1.82,1.82,0,0,0,0-.41V43.4a3.88,3.88,0,0,1-.52.14A2.1,2.1,0,0,0,5.62,43.68Z"/><path class="cls-1" d="M7,5H6a3.38,3.38,0,0,1-.43,1.83H7Z"/><path class="cls-1" d="M16.28,34.84a.67.67,0,0,0-.52.24,1.12,1.12,0,0,0-.2.72,1.25,1.25,0,0,0,.21.8.65.65,0,0,0,.53.26.63.63,0,0,0,.5-.24,1.24,1.24,0,0,0,.19-.78,1.17,1.17,0,0,0-.2-.76A.64.64,0,0,0,16.28,34.84Z"/><path class="cls-1" d="M10.26,6.89a.72.72,0,0,0,.56-.25,1.1,1.1,0,0,0,.23-.75,1.08,1.08,0,0,0-.23-.73.72.72,0,0,0-.56-.25.74.74,0,0,0-.57.25,1.09,1.09,0,0,0-.22.74,1.09,1.09,0,0,0,.22.74A.74.74,0,0,0,10.26,6.89Z"/><path class="cls-1" d="M5.62,21.22a.35.35,0,0,0-.16.3.4.4,0,0,0,.13.31.45.45,0,0,0,.34.13.73.73,0,0,0,.44-.15.56.56,0,0,0,.21-.28,1.86,1.86,0,0,0,0-.42v-.17a4.25,4.25,0,0,1-.52.13A1.59,1.59,0,0,0,5.62,21.22Z"/><path class="cls-1" d="M9.85,19.86a.64.64,0,0,0-.52.24,1.09,1.09,0,0,0-.21.72,1.31,1.31,0,0,0,.21.81.68.68,0,0,0,.53.26.62.62,0,0,0,.5-.24,1.25,1.25,0,0,0,.2-.79,1.12,1.12,0,0,0-.21-.75A.6.6,0,0,0,9.85,19.86Z"/><path class="cls-1" d="M12.39,34.86a.72.72,0,0,0-.56.25,1.11,1.11,0,0,0-.23.74,1.09,1.09,0,0,0,.23.74.73.73,0,0,0,.56.26.75.75,0,0,0,.57-.26,1.09,1.09,0,0,0,.22-.74,1.11,1.11,0,0,0-.22-.74A.74.74,0,0,0,12.39,34.86Z"/><path class="cls-1" d="M16.47,27.33a.61.61,0,0,0-.46.2.82.82,0,0,0-.18.56h1.28a.86.86,0,0,0-.19-.57A.58.58,0,0,0,16.47,27.33Z"/><path class="cls-1" d="M0,0V49H24.52V0ZM12.5,5.47h1.68v.86H12.5Zm-.49,15h1.68v.85H12ZM8.8,5a1.45,1.45,0,0,1,.59-.61,1.79,1.79,0,0,1,.86-.21,1.62,1.62,0,0,1,1.21.48,1.64,1.64,0,0,1,.47,1.2,1.66,1.66,0,0,1-.48,1.22,1.59,1.59,0,0,1-1.19.48,1.93,1.93,0,0,1-.85-.2A1.34,1.34,0,0,1,8.8,6.8a2,2,0,0,1-.21-1A1.72,1.72,0,0,1,8.8,5Zm.3,25H8.27V26.75H9.1v2l1.31-2h.84V30h-.82V27.91ZM11,22.12a1.22,1.22,0,0,1-1,.45,1.06,1.06,0,0,1-.48-.11,1.46,1.46,0,0,1-.46-.37v1.64H8.27V19.26h.8v.47a1.13,1.13,0,0,1,.42-.39,1.18,1.18,0,0,1,.59-.16,1.22,1.22,0,0,1,.95.45,1.74,1.74,0,0,1,.4,1.23A1.82,1.82,0,0,1,11,22.12ZM8.58,15H7.85V12.88L7.06,15H6.33l-.75-2.13V15H4.85V11.77H5.91L6.71,14l.81-2.25H8.58ZM6.49,20A.73.73,0,0,0,6,19.84a.64.64,0,0,0-.36.09.74.74,0,0,0-.21.32l-.77-.14a1.23,1.23,0,0,1,.45-.7,1.64,1.64,0,0,1,1-.23,2,2,0,0,1,.85.14.92.92,0,0,1,.4.34,1.91,1.91,0,0,1,.11.77v1a4.37,4.37,0,0,0,0,.63,1.62,1.62,0,0,0,.16.43H6.79a2.55,2.55,0,0,1-.08-.25.33.33,0,0,1,0-.1,1.57,1.57,0,0,1-.47.32,1.4,1.4,0,0,1-.53.11,1.1,1.1,0,0,1-.79-.27.91.91,0,0,1-.29-.69.9.9,0,0,1,.13-.49.91.91,0,0,1,.37-.33,3.35,3.35,0,0,1,.68-.2,3.82,3.82,0,0,0,.83-.21V20.3A.43.43,0,0,0,6.49,20ZM4.36,6.82h.35a2.15,2.15,0,0,0,.36-.76,8.82,8.82,0,0,0,.17-1.78H7.85V6.82H8.2V8.37H7.5V7.52H5.05v.85H4.36Zm.1,19.93h1l.57.89.6-.89h1l-1.1,1.53L7.79,30h-1l-.66-1-.66,1h-1l1.17-1.66ZM6,35.43A1.79,1.79,0,0,0,6.16,35a1.22,1.22,0,0,1,.36-.61A.88.88,0,0,1,7,34.21l.34,0v.56a.92.92,0,0,0-.43.07.88.88,0,0,0-.2.4.82.82,0,0,1-.43.55,1.17,1.17,0,0,1,.68.7l0,.07.48.89H6.58l-.42-.94a1.3,1.3,0,0,0-.23-.36.46.46,0,0,0-.29-.08v1.38H4.79V34.23h.85v1.33A.47.47,0,0,0,6,35.43ZM6.79,45c0-.06,0-.14-.08-.25l0-.1a1.78,1.78,0,0,1-.47.32,1.39,1.39,0,0,1-.53.1,1.1,1.1,0,0,1-.79-.27.91.91,0,0,1-.29-.69.86.86,0,0,1,.13-.48.79.79,0,0,1,.37-.33,2.42,2.42,0,0,1,.68-.2,5.56,5.56,0,0,0,.83-.21v-.09a.45.45,0,0,0-.12-.35A.73.73,0,0,0,6,42.3a.64.64,0,0,0-.36.09.74.74,0,0,0-.21.32l-.77-.14a1.3,1.3,0,0,1,.45-.7,1.65,1.65,0,0,1,1-.22,1.86,1.86,0,0,1,.85.14.86.86,0,0,1,.4.34,1.88,1.88,0,0,1,.11.77v1a4.26,4.26,0,0,0,0,.63,1.82,1.82,0,0,0,.16.44Zm3.7-10h-1v2.54H8.6V34.93h-1v-.7h2.93Zm3.1,2.13a1.61,1.61,0,0,1-1.19.48,1.8,1.8,0,0,1-.85-.2,1.36,1.36,0,0,1-.62-.59,2,2,0,0,1-.21-.94,1.76,1.76,0,0,1,.21-.83,1.41,1.41,0,0,1,.6-.61,1.77,1.77,0,0,1,.86-.21,1.6,1.6,0,0,1,1.2.48,1.62,1.62,0,0,1,.47,1.2A1.65,1.65,0,0,1,13.59,37.06Zm1.09-9.62h-1V30h-.86V27.44h-1v-.69h2.93Zm2.79,9.65a1.22,1.22,0,0,1-1,.45,1.13,1.13,0,0,1-.49-.1,1.75,1.75,0,0,1-.45-.37V38.7h-.86V34.23h.8v.48a1.17,1.17,0,0,1,1-.55,1.24,1.24,0,0,1,.95.44,1.82,1.82,0,0,1,.4,1.23A1.87,1.87,0,0,1,17.47,37.09ZM16,29.2a.67.67,0,0,0,.5.22.52.52,0,0,0,.33-.11.7.7,0,0,0,.21-.36l.85.15a1.41,1.41,0,0,1-.51.71,1.58,1.58,0,0,1-.89.24,1.43,1.43,0,0,1-1.25-.55,2.09,2.09,0,0,1,.1-2.37,1.36,1.36,0,0,1,1.06-.46,1.44,1.44,0,0,1,1.14.48,2.11,2.11,0,0,1,.4,1.46H15.82A.83.83,0,0,0,16,29.2Zm4.11,7.08H18.45v-.86h1.68Zm.11-7.49H18.56v-.86h1.68Z"/></g></g></g></svg>