<svg xmlns="http://www.w3.org/2000/svg" viewBox="0 0 47.52 47.51"><defs><style>.cls-1{fill:#fff;}</style></defs><g id="Слой_2" data-name="Слой 2"><g id="Перемена_2021" data-name="Перемена 2021"><g id="_8" data-name="8"><path class="cls-1" d="M23.46,47.51l-1-.07a23.35,23.35,0,0,1-12.4-4.29,23.73,23.73,0,0,1-7-7.76,23.82,23.82,0,0,1-3-13,24.21,24.21,0,0,1,1.11-6A23.73,23.73,0,0,1,14,2.08,22,22,0,0,1,19.66.36c.85-.13,1.71-.24,2.57-.3A22.42,22.42,0,0,1,25,0,23.2,23.2,0,0,1,37.68,4.52a23.37,23.37,0,0,1,9.23,14c.19.83.31,1.68.42,2.53.09.64.11,1.29.17,1.94a.78.78,0,0,0,0,.14v1.34l0,.14c-.05.63-.09,1.27-.15,1.9a21.12,21.12,0,0,1-.6,3.25,23.45,23.45,0,0,1-8.23,12.62A23.23,23.23,0,0,1,25,47.44l-1,.07ZM.94,23.74A22.82,22.82,0,1,0,23.77.92,22.83,22.83,0,0,0,.94,23.74Z"/><path class="cls-1" d="M28.17,15.88v.7h-.82s-.09-.08-.1-.13,0-.37,0-.56c-.28,0-.55,0-.82-.08a2.38,2.38,0,0,1-2.1-1.9,2.43,2.43,0,0,1,2-3c.29-.06.58-.07.88-.11v-.58h.93v.59c.24,0,.47,0,.69.06a2.46,2.46,0,0,1,2,1.3A2.49,2.49,0,0,1,29,15.8C28.75,15.85,28.48,15.85,28.17,15.88Zm-.9-.8V11.57a1.8,1.8,0,0,0-1.8.83,1.83,1.83,0,0,0,.12,2A1.86,1.86,0,0,0,27.27,15.08Zm.91,0A1.73,1.73,0,0,0,30,14.26a1.82,1.82,0,0,0-.08-2,1.86,1.86,0,0,0-1.7-.71Z"/><path class="cls-1" d="M22.75,13.37a3.16,3.16,0,0,1-.87,2.3A2.86,2.86,0,0,1,17.14,14a3.39,3.39,0,0,1,.6-2.72,2.64,2.64,0,0,1,2.06-1A2.73,2.73,0,0,1,22.72,13Zm-4.68,0a2.5,2.5,0,0,0,.23,1.2,1.73,1.73,0,0,0,1.58,1.05,1.66,1.66,0,0,0,1.63-1,2.8,2.8,0,0,0,0-2.43,1.76,1.76,0,0,0-3-.25A2.45,2.45,0,0,0,18.07,13.33Z"/><path class="cls-1" d="M29.5,26.72h-.95v-5H26.33c0,.06,0,.13,0,.19,0,.78,0,1.56,0,2.34a9.46,9.46,0,0,1-.19,1.59,1,1,0,0,1-1,.93,4.1,4.1,0,0,1-.7,0c-.14,0-.15-.08-.14-.18s.05-.42.08-.63h.48a.46.46,0,0,0,.46-.36,4.63,4.63,0,0,0,.12-.9c0-1.2,0-2.4,0-3.6v-.17H29.5Z"/><path class="cls-1" d="M37.07,37.19c-.33,0-.62,0-.91,0a.22.22,0,0,1-.13-.12q-.2-.51-.36-1c0-.12-.09-.17-.22-.17H33.17A.17.17,0,0,0,33,36l-.34,1c0,.11-.08.16-.21.16s-.53,0-.82,0l.36-1q.84-2.32,1.67-4.65a.22.22,0,0,1,.26-.18c.36,0,.71,0,1.07,0Zm-2.75-5.07-1,3h2Z"/><path class="cls-1" d="M15.41,20.92l-1.33,1.76c-.22.29-.42.57-.65.84-.09.11-.07.18,0,.29l2,2.79.09.14a3.48,3.48,0,0,0-.56,0,.78.78,0,0,1-.85-.43c-.46-.71-1-1.39-1.47-2.09a.23.23,0,0,0-.24-.13h-.81v2.63h-1V20.93h1v.22c0,.66,0,1.32,0,2,0,.14,0,.19.18.18a2.05,2.05,0,0,0,.79,0c.21-.1.33-.38.48-.59.41-.54.81-1.07,1.21-1.62a.32.32,0,0,1,.28-.14Z"/><path class="cls-1" d="M26.1,37.18h-1V31.37h2.68a1.81,1.81,0,0,1,1.57.72,1.86,1.86,0,0,1,.15,1.9,1.53,1.53,0,0,1-1.4.94c-.6,0-1.2,0-1.8,0H26.1Zm0-3c.62,0,1.22,0,1.81,0a1,1,0,0,0,0-1.94c-.6,0-1.2,0-1.79,0l0,0Z"/><path class="cls-1" d="M32.61,26.72V20.93h.94v2.19h.21c.55,0,1.09,0,1.63,0a1.79,1.79,0,0,1,0,3.57c-.89,0-1.78,0-2.67,0Zm1-.78h1.2a3.77,3.77,0,0,0,.58,0,.92.92,0,0,0,.77-1,.88.88,0,0,0-.77-.95c-.59-.05-1.18,0-1.78,0Z"/><path class="cls-1" d="M14.84,14.8l.57.63a3.19,3.19,0,0,1-1.56.91,2.88,2.88,0,0,1-2.43-.47,2.76,2.76,0,0,1-1-1.8,3.55,3.55,0,0,1,.29-2.29,2.57,2.57,0,0,1,2.2-1.44,3,3,0,0,1,2.35.74l.09.09-.55.65c-.16-.12-.32-.24-.48-.34a2,2,0,0,0-1.46-.3,1.9,1.9,0,0,0-1.5,1.73,3,3,0,0,0,.11,1.37,1.8,1.8,0,0,0,2.78,1Z"/><path class="cls-1" d="M18.23,37.24l.18-.83.37.05a.76.76,0,0,0,.88-.52.38.38,0,0,0,0-.23L17.69,31.6c0-.07-.07-.14-.11-.24.32,0,.62,0,.92,0,.05,0,.11.08.14.14l1.41,3.09c0,.06.05.12.09.21l.09-.15c.46-1,.92-2.1,1.37-3.15,0-.11.1-.16.23-.15s.51,0,.79,0c-.14.31-.27.61-.41.9-.59,1.31-1.17,2.61-1.77,3.91a5.24,5.24,0,0,1-.34.61,1.1,1.1,0,0,1-1,.52C18.83,37.3,18.54,37.26,18.23,37.24Z"/><path class="cls-1" d="M18.23,26.76l.18-.8a4.79,4.79,0,0,0,.49.05.74.74,0,0,0,.76-.53.32.32,0,0,0,0-.21q-1-2.09-2-4.18l-.07-.17c.32,0,.62,0,.92,0,0,0,.11.09.14.14.47,1,.93,2.06,1.4,3.08a1.25,1.25,0,0,0,.1.21,1.54,1.54,0,0,0,.09-.19c.46-1,.91-2.05,1.35-3.08a.25.25,0,0,1,.26-.17c.25,0,.49,0,.76,0l-.68,1.52c-.49,1.08-1,2.18-1.48,3.26a4.59,4.59,0,0,1-.35.61,1.23,1.23,0,0,1-1.18.55A6,6,0,0,1,18.23,26.76Z"/><path class="cls-1" d="M12.4,32.17H10.62v-.8h4.53v.81H13.37v5h-1Z"/><path class="cls-1" d="M32.42,11.28v-.81H37v.81H35.17v5h-1v-5Z"/></g></g></g></svg>