<svg xmlns="http://www.w3.org/2000/svg" viewBox="0 0 42.85 47.58"><defs><style>.cls-1{fill:#fff;}</style></defs><g id="Слой_2" data-name="Слой 2"><g id="Перемена_2021" data-name="Перемена 2021"><g id="_10" data-name="10"><path class="cls-1" d="M40.41,14.7c-.6.12-1.1.23-1.61.32s-.73,0-.77-.45.29-.54.67-.58a3.12,3.12,0,0,0,2.94-2.25,3.2,3.2,0,0,0-.73-3.33,1.78,1.78,0,0,0-.37-.22c-.06.28-.11.51-.15.73a4.36,4.36,0,0,1-3.68,3.66,1.2,1.2,0,0,1-.53,0,3.35,3.35,0,0,1-.57-.44c.16-.18.28-.43.47-.53a3.66,3.66,0,0,1,.76-.11,3.24,3.24,0,0,0,2.52-3.66c0-.16-.25-.3-.41-.4s-.25,0-.34,0-.5-.26-.55-.44.24-.38.39-.56a1.18,1.18,0,0,1,.19-.11,2.35,2.35,0,0,0-1.85-1.16,17.92,17.92,0,0,1,0,1.94,4.41,4.41,0,0,1-3.92,3.75c-.37,0-.77,0-.83-.47s.34-.59.71-.59A3.28,3.28,0,0,0,35.5,5,3,3,0,0,0,33,3.33a12.29,12.29,0,0,1,.34,1.55,5.06,5.06,0,0,1-4.37,5.55,1.86,1.86,0,0,0-.91.36,5.73,5.73,0,0,1-2.49,1.08,2.42,2.42,0,0,0-1.07.54A5.81,5.81,0,0,1,21,13.89c-.38,0-.79,0-.83-.46s.34-.54.74-.56A4.66,4.66,0,0,0,25.3,8.33c0-.37.16-.66.54-.64s.54.33.48.69c-.12.74-.27,1.48-.42,2.28A3.14,3.14,0,0,0,28,9.37c1.41-1.77.88-4.61-.41-6.15a5.66,5.66,0,0,0-4.29-2.16c-.06,0-.14,0-.18,0C23,.85,22.6.69,22.58.49c0-.39.31-.5.67-.49a6.88,6.88,0,0,1,3.88,1.36,6.67,6.67,0,0,1,2.61,6.79c-.09.32-.21.63-.34,1a1.61,1.61,0,0,0,.42,0,4,4,0,0,0,2.42-4.46,3.9,3.9,0,0,0-3.55-3.24c-.1,0-.2,0-.3,0-.33,0-.65-.18-.54-.54.07-.21.41-.5.6-.47a6.35,6.35,0,0,1,1.9.44,12.42,12.42,0,0,1,1.56,1.08,1.32,1.32,0,0,0,.61.26,4.15,4.15,0,0,1,3,1.31,1.53,1.53,0,0,0,1,.52A4.37,4.37,0,0,1,40,6.3a1.8,1.8,0,0,0,.55.58,4.28,4.28,0,0,1,1.2,6.75,1.4,1.4,0,0,0-.22.82q0,13.26,0,26.53a6.17,6.17,0,0,1-3.93,6.11,3.21,3.21,0,0,1-2.82.26c-.11-.06-.31,0-.46,0a2.44,2.44,0,0,1-1.91,0c-.08,0-.23,0-.34,0a25.68,25.68,0,0,1-3.81.16,19.09,19.09,0,0,1-2.27,0,14.27,14.27,0,0,0-2.62,0c-.23,0-.44-.31-.66-.48a3.87,3.87,0,0,1,.64-.51c.17-.09.41-.05.67-.21-.46-.27-.92-.54-1.37-.82A13.85,13.85,0,0,1,15.85,34.2a5.71,5.71,0,0,1,.21-1.2l-2.13-.73v1c0,2,.07,3.91.11,5.86,0,.34,0,.68-.41.66a.78.78,0,0,1-.57-.51A14.18,14.18,0,0,1,12.85,37c0-1.77,0-3.55,0-5.33a7,7,0,0,0-.25-1.26,8.75,8.75,0,0,1-.33-1.5c0-.21.29-.44.45-.66.18.19.52.38.53.57a3.14,3.14,0,0,0,3,3,.78.78,0,0,1,.6.38c.06.2-.12.47-.18.66a8.56,8.56,0,0,1,.28,1.39,12.82,12.82,0,0,0,8.37,11.39,1.12,1.12,0,0,0,.88-.1,4.86,4.86,0,0,0,2.21-4.14c0-1.8,0-3.6,0-5.39,0-.71.14-.86.83-.86h9.1c.53,0,.77.24.77.75,0,1.7,0,3.4,0,5.09a6.41,6.41,0,0,1-1.82,4.66,2,2,0,0,0-.16.24s0,.08,0,.2a3.63,3.63,0,0,0,.66-.24,4.87,4.87,0,0,0,2.64-4.26c0-5.21,0-10.42,0-15.63,0-.12,0-.24,0-.45H38.89c-.18,0-.4.07-.53,0a4.42,4.42,0,0,1-.65-.57c.21-.17.42-.46.65-.48a19.11,19.11,0,0,1,2,0V21.84H29.78a4.26,4.26,0,0,0-2.89.73A3.39,3.39,0,0,0,25.59,25c0,.41-.09.83-.6.76s-.48-.49-.44-.9a4.63,4.63,0,0,1,4.66-4.09c3.57,0,7.15,0,10.72,0,.3,0,.49,0,.49-.4C40.41,18.54,40.41,16.65,40.41,14.7ZM32.13,46.14a4.93,4.93,0,0,0,3.44-4.53c0-.39.08-.77.55-.76s.53.39.51.78a5.65,5.65,0,0,1-1,3.08c-.32.45-.66.88-1.06,1.42a2.15,2.15,0,0,0,.48-.11,4.62,4.62,0,0,0,2.77-3.51A36,36,0,0,0,38,38.22c0-.63,0-1.26,0-1.9l-.31,0H29.89c-.38,0-.47.14-.47.49,0,1.48,0,3,0,4.43A6.14,6.14,0,0,1,28,45.31c-.19.22-.35.46-.53.69a1.74,1.74,0,0,0,.81-.21,5.06,5.06,0,0,0,2.51-4.17c0-.38.06-.78.54-.77s.53.44.51.84a5.62,5.62,0,0,1-.9,2.87c-.34.52-.74,1-1.21,1.62a4.34,4.34,0,0,0,.65-.22,5.05,5.05,0,0,0,2.81-4.35c0-.4.09-.77.56-.76s.51.41.5.79A6,6,0,0,1,33,45.11C32.72,45.42,32.47,45.72,32.13,46.14Z"/><path class="cls-1" d="M8,23.89c-.42.37-.77.7-1.15,1a5.47,5.47,0,0,1-3.2,1.19c-.35,0-.73,0-.74-.5s.35-.52.71-.55a4.54,4.54,0,0,0,4.3-3.44A6.59,6.59,0,0,0,8,19.93c0-2.14,0-4.27,0-6.41A5.29,5.29,0,0,1,12.3,8.2c.47-.1.59-.3.66-.73a7.4,7.4,0,0,1,6.82-6.22.92.92,0,0,1,.47,0c.18.12.42.31.42.48a.64.64,0,0,1-.41.48,8.16,8.16,0,0,1-1.12.13,6.2,6.2,0,0,0-5.21,6.1v8c0,.16.05.36,0,.47a3.17,3.17,0,0,1-.5.54,3.12,3.12,0,0,1-.53-.56c-.08-.13,0-.35,0-.53V9.24c-1-.11-1.35.17-1.35,1.11q0,5.39,0,10.77c0,.43,0,1-.51,1s-.54-.56-.54-1c0-3.45,0-6.9,0-10.35a3.69,3.69,0,0,0,0-.41,2.82,2.82,0,0,0-.38.34,4.19,4.19,0,0,0-.93,2.59c0,4,0,8,0,11.92,0,.11,0,.23,0,.34a4.37,4.37,0,0,0,3.39-2.76,10.26,10.26,0,0,0,.3-3.44c0-.22-.06-.47,0-.64s.36-.51.53-.5a.78.78,0,0,1,.51.52c.1,2.31.1,4.62-1.74,6.41-.06.05-.07.13-.13.26a2.74,2.74,0,0,0,1.73-.91,4.53,4.53,0,0,0,1.48-3.11,1.12,1.12,0,0,1,.46-.79c.29-.18.63.24.59.73a5.74,5.74,0,0,1-1.42,3.47,1.26,1.26,0,0,0-.32.62,3.43,3.43,0,0,0,.57-.17,4.39,4.39,0,0,0,2.5-4q.06-5.38,0-10.77a7.22,7.22,0,0,1,6.68-7.12c.08,0,.18,0,.24,0,.22.15.43.32.64.49-.2.18-.37.46-.61.53a21.79,21.79,0,0,0-2.19.48A5.67,5.67,0,0,0,18.8,9.41a2.76,2.76,0,0,0,0,.42c.42-.36.75-.66,1.1-.93a5.74,5.74,0,0,1,3.17-1.23c.39,0,.79,0,.83.47s-.36.57-.73.58a4.59,4.59,0,0,0-4.42,4.4c0,2.57,0,5.15,0,7.72a5.78,5.78,0,0,1-5.23,5.89,2,2,0,0,1-.88-.18.82.82,0,0,0-1.11.68c0,4,0,8,0,11.92v.24c0,.42.1,1-.53,1s-.52-.59-.52-1c0-1.22,0-2.44,0-3.65V27.37c0-.85-.17-1-1-.76l-.37.12V32.8c0,1.3,0,2.6,0,3.89a5.82,5.82,0,0,1-5.48,5.74A3.4,3.4,0,0,1,0,39.31c0-.24.27-.5.42-.74.2.2.53.38.58.61a2.32,2.32,0,0,0,2.77,2.2A4.62,4.62,0,0,0,8,36.16l-.38.27a4,4,0,0,1-3.32,1,2.58,2.58,0,0,1-2-2.21c0-.4.11-.71.49-.75s.51.27.55.64a1.38,1.38,0,0,0,1.53,1.33A3,3,0,0,0,8,33.59c.07-1.24,0-2.49,0-3.85L6.79,30.79A5.33,5.33,0,0,1,3.55,32c-.36,0-.68-.09-.68-.49s.26-.52.64-.55a4.56,4.56,0,0,0,4.36-3.45,3.16,3.16,0,0,0-.12-1,1,1,0,0,1,0-.44A3.42,3.42,0,0,0,8,23.89Z"/><path class="cls-1" d="M15.24,13.69c0-1.65,0-3.31,0-5a5.83,5.83,0,0,1,5.41-5.86h.12c.38,0,.71.07.73.5s-.32.51-.65.53a4.4,4.4,0,0,0-2.56.84,4.59,4.59,0,0,0-2,3.83V19c0,.36-.2.68-.56.61a.82.82,0,0,1-.47-.63c-.06-.8,0-1.6,0-2.39V13.69Z"/><path class="cls-1" d="M21.11,32.23a14.68,14.68,0,0,0,1.37,7.26,13.44,13.44,0,0,0,3.08,4.06c.28.26.67.52.28.92s-.71,0-1-.21a14.7,14.7,0,0,1-4.1-6.33,18.08,18.08,0,0,1-.68-6c0-.8,0-1.6,0-2.39,0-.25.29-.65.48-.68.39,0,.53.32.53.7C21.11,30.43,21.11,31.33,21.11,32.23Z"/><path class="cls-1" d="M37.84,32c-.3-1.15-.56-2.19-.84-3.22q-.69-2.6-1.41-5.19c-.1-.38,0-.7.35-.82s.55.2.64.52c.64,2.36,1.26,4.73,1.9,7.09.16.61.34,1.22.51,1.83s-.05.84-.57.85c-1.84,0-3.67,0-5.51,0-.35,0-.67-.12-.65-.53s.32-.52.68-.52h4.9Z"/><path class="cls-1" d="M21.1,23.71a5.82,5.82,0,0,1-5.18,5.45c-.16,0-.36.06-.47,0a3.23,3.23,0,0,1-.55-.5c.18-.17.33-.42.55-.49a16.69,16.69,0,0,0,2.37-.72A4.24,4.24,0,0,0,20,24a1.73,1.73,0,0,1,.08-.58,3,3,0,0,1,.54-.52c.16.2.32.4.46.6S21.1,23.7,21.1,23.71Z"/><path class="cls-1" d="M20.08,18.44V15.69c0-.37.05-.79.54-.77s.5.39.5.76c0,1.83,0,3.66,0,5.49,0,.4-.09.78-.55.77s-.49-.39-.49-.75V18.44Z"/><path class="cls-1" d="M30.87,24.49h1.67c.4,0,.73.18.68.56a.88.88,0,0,1-.67.49c-1.15.05-2.31.06-3.46,0-.24,0-.46-.33-.68-.51.22-.18.43-.49.67-.52a13.34,13.34,0,0,1,1.79,0Z"/><path class="cls-1" d="M34,38.67H31.56c-.4,0-.76-.08-.76-.55s.39-.5.74-.5c1.63,0,3.26,0,4.89,0,.25,0,.68.29.69.46,0,.4-.3.59-.73.58C35.58,38.66,34.76,38.67,34,38.67Z"/></g></g></g></svg>