<svg xmlns="http://www.w3.org/2000/svg" viewBox="0 0 123.09 34.15"><defs><style>.cls-1{fill:#fff;}</style></defs><g id="Слой_2" data-name="Слой 2"><g id="Перемена_2021" data-name="Перемена 2021"><g id="_11" data-name="11"><path class="cls-1" d="M8.12,12.66V34A64,64,0,0,1,0,34c0-.2,0-.42,0-.64V4.12a1.54,1.54,0,0,1,0-.48A.49.49,0,0,1,.3,3.38a1.91,1.91,0,0,1,.48,0H12.43c.69,0,.69,0,.9.66Q16.2,13,19.08,22a2.3,2.3,0,0,0,.28.63c2.26-6.38,4.38-12.79,6.57-19.17H38.56c.15.53.2,29.57,0,30.65a4.58,4.58,0,0,1-.55.07H30.8a5.3,5.3,0,0,1-.6-.07V12.62l-.12,0c-.09.22-.19.43-.26.66L23.19,33.35l-.15.46a.44.44,0,0,1-.46.33H15.73c-.68,0-.69,0-.89-.67q-3.16-10-6.31-20c-.08-.26-.17-.52-.25-.78Z"/><path class="cls-1" d="M87.58,28.43H76.07c-.08.22-.17.45-.25.69-.53,1.48-1,3-1.58,4.45-.21.56-.21.57-.77.57H66.13c-.17,0-.35,0-.64-.06.09-.32.14-.6.23-.86q1.78-4.75,3.56-9.49L76.63,4.18l.19-.51a.43.43,0,0,1,.47-.31c.11,0,.23,0,.34,0h8.64c.68,0,.69,0,.94.63Q93,18.67,98.81,33.34c.07.19.13.39.19.57-.21.32-.51.22-.76.22H90.08c-.58,0-.59,0-.77-.56-.48-1.43-1-2.86-1.43-4.29C87.79,29,87.69,28.74,87.58,28.43Zm-9.53-7h7.43c-1.23-3.6-2.44-7.12-3.65-10.64h-.12C80.49,14.29,79.28,17.82,78.05,21.4Z"/><path class="cls-1" d="M43.63,34V3.5a73.33,73.33,0,0,1,8.42,0c.09,1.34,0,2.7,0,4.06s0,2.7,0,4V27.9h12c.53,0,.57.05.58.6,0,1.37,0,2.74,0,4.11V34C64.05,34.17,44.39,34.19,43.63,34Z"/><path class="cls-1" d="M109.06.13a32,32,0,0,1,6,0V8.41h7.59c.35,0,.48.15.48.49,0,.89,0,1.79,0,2.68,0,.64,0,1.28,0,1.91s-.06.66-.68.66h-7.36v7.57a29.46,29.46,0,0,1-6,.08V19.32c0-.85,0-1.69,0-2.54V14.16H101.9c-.26,0-.53,0-.82-.05V8.42c1.36,0,2.67,0,4,0h4C109.06,5.59,109.05,2.84,109.06.13Z"/></g></g></g></svg>