<svg xmlns="http://www.w3.org/2000/svg" viewBox="0 0 155.68 29.9"><defs><style>.cls-1{fill:#fff;}</style></defs><g id="Слой_2" data-name="Слой 2"><g id="Перемена_2021" data-name="Перемена 2021"><g id="_7" data-name="7"><polygon class="cls-1" points="9.25 18.39 19.53 18.39 19.53 11.12 9.25 11.12 9.25 8.03 20.14 8.03 20.14 0.72 0 0.72 0 29.08 20.55 29.08 20.55 21.68 9.25 21.68 9.25 18.39"/><path class="cls-1" d="M41.5,12.15l-2-.73-3.13-1.26c-1.06-.58-1.5-1.14-1.5-1.9,0-1.75,2.15-1.94,3.07-1.94A9.07,9.07,0,0,1,43.77,9l.53.5,3.39-5.56-.31-.32a12,12,0,0,0-4.16-2.53A13.28,13.28,0,0,0,38.1,0c-3.29,0-5.91.8-7.72,2.36a8.09,8.09,0,0,0-3.17,6.56,7.53,7.53,0,0,0,2.36,5.79A13.45,13.45,0,0,0,33,16.84l4.31,1.61a8.35,8.35,0,0,1,2,.92A1.78,1.78,0,0,1,40.26,21c0,1.4-1.27,2.31-3.17,2.31a8.4,8.4,0,0,1-3.47-.91,13,13,0,0,1-3.42-2.45l-.46-.5-3.9,5.76.37.33A15,15,0,0,0,36.52,29.9a12.45,12.45,0,0,0,7.92-2.43,8.66,8.66,0,0,0,3.5-7.13,7.93,7.93,0,0,0-2.37-5.78A10.81,10.81,0,0,0,41.5,12.15Z"/><path class="cls-1" d="M68.28,23.64a8.62,8.62,0,0,1-6.19-2.38,8.66,8.66,0,0,1-2.47-6.47A8.73,8.73,0,0,1,62,8.27a8.58,8.58,0,0,1,6.23-2.38A10.49,10.49,0,0,1,72.91,7a8.27,8.27,0,0,1,2.81,1.9l2.08-5.6a10.55,10.55,0,0,0-3.55-2.13A15.6,15.6,0,0,0,67.92,0,15.22,15.22,0,0,0,57.08,4.06c-2.88,2.71-4.3,6.27-4.3,10.83s1.43,8.14,4.3,10.86a15.14,15.14,0,0,0,10.84,4c4.35,0,7.85-1.27,10.4-3.93l-2.24-5.27A10.26,10.26,0,0,1,68.28,23.64Z"/><polygon class="cls-1" points="103.57 12.08 89.8 12.08 89.8 0.72 85.08 0.72 85.08 29.08 89.8 29.08 89.8 16.24 103.57 16.24 103.57 29.08 108.3 29.08 108.3 0.72 103.57 0.72 103.57 12.08"/><polygon class="cls-1" points="118.82 15.58 130.76 15.58 130.76 12.51 118.82 12.51 118.82 3.8 131.47 3.8 131.47 0.73 115.55 0.73 115.55 29.06 131.74 29.06 131.74 25.98 118.82 25.98 118.82 15.58"/><path class="cls-1" d="M147.14,15.91c4.26-.74,6.79-3.54,6.79-7.52,0-4.71-3.39-7.64-8.86-7.64h-6.61V29h2.47V16h3.36l8.23,13h3.16ZM140.93,3h2.93c2.74,0,4.17.16,5.47,1.14a4.86,4.86,0,0,1,2,4.22,5,5,0,0,1-2,4.27A6.66,6.66,0,0,1,146,13.73c-.52,0-1.2,0-2.13,0H141Z"/></g></g></g></svg>