<svg xmlns="http://www.w3.org/2000/svg" viewBox="0 0 92.35 38.51"><defs><style>.cls-1{fill:#fff;fill-rule:evenodd;}</style></defs><g id="Слой_2" data-name="Слой 2"><g id="Перемена_2021" data-name="Перемена 2021"><g id="_2" data-name="2"><path class="cls-1" d="M75.26,8.14h0a4.43,4.43,0,1,1-4.43,4.43,4.42,4.42,0,0,1,4.43-4.43M66.36.74V37.07a.73.73,0,0,0,1.34.41L92.22,1.15A.74.74,0,0,0,91.61,0H67.09A.74.74,0,0,0,66.36.74Z"/><path class="cls-1" d="M62.27,37.78V1.45A.73.73,0,0,0,60.93,1L36.41,37.36A.74.74,0,0,0,37,38.51H61.54a.73.73,0,0,0,.73-.73"/><path class="cls-1" d="M30.08.74V37.07a.73.73,0,0,0,1.34.41L55.94,1.15A.74.74,0,0,0,55.33,0H30.81a.73.73,0,0,0-.73.74"/><path class="cls-1" d="M17.18,21.54h0A4.43,4.43,0,1,1,12.75,26a4.42,4.42,0,0,1,4.43-4.42M.74,38.51H25.25a.74.74,0,0,0,.74-.73V1.45A.74.74,0,0,0,24.64,1L.13,37.37A.73.73,0,0,0,.74,38.51Z"/></g></g></g></svg>