<svg xmlns="http://www.w3.org/2000/svg" viewBox="0 0 40.87 51.74"><defs><style>.cls-1{fill:#fff;}</style></defs><g id="Слой_2" data-name="Слой 2"><g id="Перемена_2021" data-name="Перемена 2021"><g id="_4" data-name="4"><path class="cls-1" d="M29.78,35a2.45,2.45,0,0,0,.48-1.45,1.5,1.5,0,0,0-.17-.47,2,2,0,0,1-.22-.53c0-.22-.09-.77-.13-1.45A24.67,24.67,0,0,1,28.12,28a9.62,9.62,0,0,0-1.4.69c-.31.17-.62.34-1,.49C26.37,30.55,27.1,32,27.62,33a1.1,1.1,0,0,1,.18.7,1.45,1.45,0,0,0,0,.29,1.83,1.83,0,0,0,.22.61.82.82,0,0,1,.11.66l-.06.27c-.15.62-.39,1.65-.66,2.44-.07.15-.13.26-.16.31l0,0c-.22.57-.29.59-1.14.87l-.34.11a1.13,1.13,0,0,0-.71.92c0,.2.17.3.5.3h2.08c.29,0,.47,0,.56-.16a.74.74,0,0,0,0-.57v-.05a.35.35,0,0,1,.19-.47.76.76,0,0,0,.35-.69A7.86,7.86,0,0,1,28.9,37a14.33,14.33,0,0,1,.58-1.42,5.27,5.27,0,0,1,.3-.53"/><path class="cls-1" d="M14.42,22.24,14.6,22l.38-.53V19.84h.22a1.75,1.75,0,0,1,.15-.34H12.84c0,.12,0,.22,0,.34h1.82v2.05H12.55c0,.12,0,.24,0,.35Z"/><polygon class="cls-1" points="36.22 33.6 36.23 33.61 36.25 33.6 36.2 33.6 36.22 33.6"/><path class="cls-1" d="M0,0V40.53c0,4.67,2.47,7.14,7.14,7.14h3.24c2.35,0,6.74.48,9.68,3.66l.37.41.38-.41c2.94-3.18,7.33-3.66,9.68-3.66h3.23c4.67,0,7.15-2.47,7.15-7.14V0ZM1,19.84h2.3v2.05H1Zm0,2.4H6.15v2.05H1Zm0,2.39h2.3v2.06H1ZM1,27H6.15v2H1Zm5.46,4.79H11.8V33.6H6.49ZM9,31.48H3.67V29.43H9ZM1,29.43h2.3v2.05H1Zm0,2.39H6.15V33.6H1Zm38.81-.34H37.62V29.43h2.22Zm0-4.79H37.62V24.63h2.22Zm0-2.4H34.78V22.24h5.06Zm0-2.4H37.62V19.84h2.22Zm0-2.4H34.78v-2h5.06ZM32,15h5.31V17.1H32Zm7.88,2.06H37.62V15h2.22Zm0-2.4H27.65a2,2,0,0,1,.14.34h3.83V17.1H29.39a2.08,2.08,0,0,1,.48.34h4.57v2H31.52a2.12,2.12,0,0,1,.22.61,1.94,1.94,0,0,1-.07,1l.29.27V19.84h5.31v2.05H32.45l.27.35h1.72v1.91a1.82,1.82,0,0,1,.54.48h2.29v2.06H35.36c0,.11,0,.23,0,.34h4.52v2h-4.7c0,.12,0,.23,0,.35h2.09v2.05h-.84c0,.1.07.22.11.34h3.3V33.6H36.68a1.17,1.17,0,0,1,0,.11.46.46,0,0,1-.4.24h-.06a1.73,1.73,0,0,1-.74-.35H33.92c0,.15-.08.27-.12.39a2.64,2.64,0,0,0-.1.3h6.14v6.24c0,4.11-2,6.12-6.12,6.12H30.49c-2.43,0-6.87.47-10.06,3.59-3.18-3.12-7.63-3.59-10-3.59H7.14C3,46.65,1,44.64,1,40.53V34.29H15.16a2,2,0,0,1-.22-.63V33.6H12.15V31.82h2.63c0-.11-.06-.22-.1-.34H9.33V29.43h1.89a6.26,6.26,0,0,1-1-.35H6.49V27H7.58l-.21-.34H3.67V24.63H6.79a1.79,1.79,0,0,1,0-.24v-.1H6.49V22.24H7c0-.12,0-.24.07-.35H3.67V19.84h4v0l0-.05a4.49,4.49,0,0,0-.65-.26H1v-2H3c0-.06,0-.13.06-.15a.81.81,0,0,1,0-.19H1V15h2.3v1.51l0,0a2.07,2.07,0,0,1,.32-.35V15H7.06l.56-.24.06,0,.08,0,.08,0H1V13.22H3.26V11.51h2v1.71h3.4V11.51h2v1.71h3.39V11.51h2v1.71h3.4V11.51h2v1.71h3.39V11.51h2v1.71h3.4V11.51h2v1.71h3.39V11.51h2v1.71h2.21Zm0-2.17H38.32v-1.7H34.94v1.7h-2v-1.7H29.55v1.7h-2v-1.7H24.16v1.7h-2v-1.7H18.76v1.7h-2v-1.7H13.37v1.7h-2v-1.7H8v1.7H6v-1.7H2.58v1.7H1V1H39.84Z"/><path class="cls-1" d="M12.27,15h2.37V17.1H12.58c0,.11.07.23.1.34H17a2,2,0,0,1,.47-.34H15V15h4.11a2,2,0,0,1,.13-.34h-7c0,.11,0,.23,0,.34"/><path class="cls-1" d="M30.51,34.29h.84a1.87,1.87,0,0,1-.36-.55.74.74,0,0,1,0-.14H30.6a2.18,2.18,0,0,1-.09.69"/><path class="cls-1" d="M17.07,34.69a1.35,1.35,0,0,1,.16-.41,1.47,1.47,0,0,0,.19-.49,1.7,1.7,0,0,0,0-.55,1.84,1.84,0,0,1,0-.52c.06-.46.12-1.09.18-1.7l-.06-.17c-.06-.14-.13-.29-.19-.45a6.88,6.88,0,0,1-.26-.95,8.33,8.33,0,0,0-1-.06,11.08,11.08,0,0,0-1.68.14,17.35,17.35,0,0,1,1,3.11.93.93,0,0,1,0,.44,1.43,1.43,0,0,0,0,.53,1.5,1.5,0,0,0,.21.57,1.33,1.33,0,0,1,.19.5,15.87,15.87,0,0,1-.37,3.08,2.47,2.47,0,0,1-.2.48v0c-.22.57-.29.59-1.14.87l-.34.11a1.12,1.12,0,0,0-.71.92c0,.08,0,.3.5.3h2.08a.73.73,0,0,0,.56-.16.74.74,0,0,0,0-.57v-.05a.35.35,0,0,1,.19-.47.75.75,0,0,0,.35-.69,21.37,21.37,0,0,1,.46-3.84"/><path class="cls-1" d="M20.81,31.82h2.31V33.6H21a.74.74,0,0,1,0,.21,2.65,2.65,0,0,1-.07.48h6.62a2,2,0,0,1-.08-.29,1.51,1.51,0,0,1,0-.36v0h-4V31.82h3.18l-.17-.34H20.82c0,.12,0,.23,0,.34"/><path class="cls-1" d="M17.78,33.6a1.18,1.18,0,0,1,0,.26,2,2,0,0,1-.14.43h.62a1,1,0,0,1,0-.2,2,2,0,0,1,0-.49Z"/><path class="cls-1" d="M36,31.44c-.66-1.13-1.07-1.18-1.19-1.9-.38-2.1,1.34-4.65-1.29-5.4a.59.59,0,0,1-.33-.32A7.82,7.82,0,0,0,31.13,21a1.49,1.49,0,0,0,.11-.85A1.46,1.46,0,0,0,30,19a1.78,1.78,0,0,0,0-.46,1.45,1.45,0,0,0-1.28-1.13,2,2,0,0,0,0-.42,1.44,1.44,0,0,0-1.28-1.2,1.55,1.55,0,0,0,0-.48,1.5,1.5,0,0,0-1.48-1.19,1.87,1.87,0,0,0-.4,0c-.6.13-1,.22-1.41.27,0,0,0-.08,0-.11a.18.18,0,0,0-.18-.15,4,4,0,0,1-.92,0,.17.17,0,0,0-.19.19v.06c-.35-.05-.76-.13-1.31-.25a1.81,1.81,0,0,0-.4,0,1.48,1.48,0,0,0-1.47,1.19,1.55,1.55,0,0,0,0,.48A1.44,1.44,0,0,0,18.25,17a1.19,1.19,0,0,0,0,.42A1.44,1.44,0,0,0,17,18.53a1.19,1.19,0,0,0,0,.46,1.46,1.46,0,0,0-1.2,2c-.82,1.09-1.79,2.67-2.38,2.67-.76,0-1.17-.4-1.17-1.41,0-.82.34-1.83.34-3.41a4.81,4.81,0,0,0-.83-2.79,1.77,1.77,0,0,0,.06-1.66.12.12,0,0,0-.11-.05c-.23,0-.69.37-1,.71a3.08,3.08,0,0,0-1-.43,1,1,0,0,0-.25,0,4.11,4.11,0,0,0-1.56.47c-.2.09-.85.38-1.2.5a12.31,12.31,0,0,1-1.49.23,2.34,2.34,0,0,0-1.51.91,1.34,1.34,0,0,0-.2.59,5,5,0,0,1-.28.71c-.05.15.1.3.19.4s0,.17.14.29a.93.93,0,0,0,.69.21,2.12,2.12,0,0,0,.73-.13.58.58,0,0,1,.21,0,8.19,8.19,0,0,1,2.65.69A.44.44,0,0,1,8,20a12.09,12.09,0,0,0-.85,4.39c0,3,2.84,4.68,5,4.82.28,0,.7.05,1.14.05.26,0,.53,0,.78,0a11.82,11.82,0,0,1,2-.18c.35,0,.68,0,1,.05a5.45,5.45,0,0,1,0-2.05.17.17,0,0,1,.21-.12.17.17,0,0,1,.12.21,1.08,1.08,0,0,0,0,.19v.06a.59.59,0,0,0,0,.14v.3a.74.74,0,0,0,0,.21v0a2.17,2.17,0,0,0,0,.26v0l0,.24v0l0,.23v0a7,7,0,0,0,.33,1.39l.18.44c.16.4.3.74.42,1.11s.19.6.31.91a1.42,1.42,0,0,1,0,.68,1.85,1.85,0,0,0,0,.62,1,1,0,0,0,.29.56,1,1,0,0,1,.28.78v.14c0,.46,0,1.53-.05,2.34a2.78,2.78,0,0,1-.12.38l-.05.13c-.19.5-.25.53-1.31.88a1.12,1.12,0,0,0-.71.92c0,.2.17.3.49.3h2.09a.69.69,0,0,0,.55-.16c.12-.14.07-.37,0-.57l0-.05a.35.35,0,0,1,.2-.47.69.69,0,0,0,.29-.67,1.9,1.9,0,0,0-.05-.4,5.53,5.53,0,0,1-.09-1.5c0-.4,0-.93.05-1.5a2.66,2.66,0,0,1,.11-.6,4.45,4.45,0,0,0,.14-.76,1.85,1.85,0,0,0-.11-.63,1.64,1.64,0,0,1-.1-.49c0-.94.06-2,.09-2.93h0v0a1.77,1.77,0,0,0,0-.23v-.06a1.7,1.7,0,0,1,0-.22v-.1c0-.07,0-.14,0-.22s0-.09,0-.14l0-.19c0-.06,0-.13,0-.2a.83.83,0,0,0,0-.15L20.32,28a.74.74,0,0,1,0-.14l-.1-.27a1.17,1.17,0,0,1-.05-.11,3.39,3.39,0,0,0-.18-.39l0-.08a.2.2,0,0,1,.1-.16.18.18,0,0,1,.23.08,5.86,5.86,0,0,1,.63,2.83c.59,0,1.1,0,1.57-.08,0,0,0,.09,0,.13a.19.19,0,0,0,0,.14.15.15,0,0,0,.12,0h0a3.63,3.63,0,0,0,1.07-.17.16.16,0,0,0,.11-.14l0-.21c2-.4,2.64-1.16,4.18-1.77l0-.1a4.76,4.76,0,0,0-.61-1.24.18.18,0,0,1,.05-.24.16.16,0,0,1,.23,0,4.74,4.74,0,0,1,.65,1.32c0,.08.1.28.1.29A40.35,40.35,0,0,0,31,32.64a7,7,0,0,1,.27,1c.14.37.5.6.54.82a11.61,11.61,0,0,1,0,3.09,5.21,5.21,0,0,1-.29.68c-.25.64-.12.64-1.34,1a1.12,1.12,0,0,0-.7.93c0,.24.24.3.49.3h2.09c.69,0,.66-.31.58-.74,0-.1-.22-.38.11-.55a.7.7,0,0,0,.37-.6,15.26,15.26,0,0,1,0-2.52c.07-.7.14-1.36.22-1.77a4.06,4.06,0,0,0,.28-1.24c0-.64-.63-.92-.61-1.3a26.47,26.47,0,0,1,.4-3.49,8.59,8.59,0,0,0,.37-3c1,.2.12,2.68.26,4.48a5.86,5.86,0,0,0,.64,2.55,3.07,3.07,0,0,0,1.53,1.29h0c.36,0,.07-1.72-.19-2.17M8.6,16.05a.94.94,0,0,1-.61.39.36.36,0,0,1-.4-.35.42.42,0,0,1,.43-.4c.21,0,.4.05.66,0S8.69,15.93,8.6,16.05Zm11.62-.64a.81.81,0,0,1,.81-.62l.24,0a15,15,0,0,0,1.54.29c0,.47.07,1,.1,1.57a10.77,10.77,0,0,1-2.27-.38A.76.76,0,0,1,20.22,15.41Zm-1.07,1.25a1,1,0,0,1,1-.14l.38.1a.85.85,0,0,0,.24.09,11.91,11.91,0,0,0,2.16.38q0,.68,0,1.41a19.78,19.78,0,0,1-3.43-.5.87.87,0,0,1-.59-.59A.78.78,0,0,1,19.15,16.66Zm-1.28,1.61a1,1,0,0,1,1-.11l.52.15.12,0A16,16,0,0,0,23,19c0,.47,0,.95,0,1.43a16.42,16.42,0,0,1-4.8-.77.85.85,0,0,1-.53-.6A.76.76,0,0,1,17.87,18.27Zm-1,2.94a.8.8,0,0,1-.57-.63.78.78,0,0,1,.29-.74.8.8,0,0,1,.5-.17,1.29,1.29,0,0,1,.45.09l.42.15.2.08a17,17,0,0,0,4.77.85l0,1.43A18.72,18.72,0,0,1,16.88,21.21ZM24,20.4c0,.81,0,1.64,0,2.46h0a55.89,55.89,0,0,1-.52,6.64c-.17,0-.52.08-.68.09.17-1.62.32-3.83.41-6.12,0-.2,0-.39,0-.59v-.2c0-.13,0-.25,0-.38a1.93,1.93,0,0,1,0-.24v-.35a2.18,2.18,0,0,0,0-.25c0-.12,0-.24,0-.36v-.22c0-.14,0-.28,0-.43v-.15c0-.19,0-.38,0-.56V19c0-.12,0-.23,0-.34v-.76c0-.12,0-.24,0-.36s0-.11,0-.16,0-.34,0-.5v-.1c0-.13,0-.26,0-.38a.92.92,0,0,1,0-.16c0-.11,0-.21,0-.31a1,1,0,0,0,0-.17c0-.09,0-.18,0-.28s0-.1,0-.15,0-.19,0-.28,0-.09,0-.13,0-.33-.05-.45a4.28,4.28,0,0,0,.62,0c0,.13.05.33.06.47s0,.09,0,.14l0,.29c0,.05,0,.11,0,.16l0,.29c0,.06,0,.12,0,.18l0,.3c0,.06,0,.12,0,.18s0,.23,0,.35a.66.66,0,0,1,0,.14c0,.34,0,.7,0,1.06v.08c0,.16,0,.31,0,.47v.13c0,.15,0,.3,0,.45a.49.49,0,0,0,0,.12v.57C24,20,24,20.21,24,20.4Zm5-2.13a.78.78,0,0,1,.25.74.9.9,0,0,1-.53.6,16.59,16.59,0,0,1-4.35.76c0-.49,0-1,0-1.45a16.1,16.1,0,0,0,3-.57l.11,0,.53-.15A1,1,0,0,1,29,18.27ZM24.13,15.1c.4,0,.85-.14,1.47-.28a.82.82,0,0,1,1,.59.76.76,0,0,1-.42.89,11.41,11.41,0,0,1-2,.36C24.23,16.1,24.19,15.58,24.13,15.1Zm.16,2a12.59,12.59,0,0,0,1.82-.35.85.85,0,0,0,.24-.09l.38-.1a1,1,0,0,1,1,.14.81.81,0,0,1,.23.75.87.87,0,0,1-.6.59,19.28,19.28,0,0,1-3,.47C24.34,18,24.32,17.51,24.29,17.06Zm.07,5.2c0-.48,0-1,0-1.44A16.82,16.82,0,0,0,28.71,20l.2-.08.42-.15a.93.93,0,0,1,1,.08.8.8,0,0,1,.29.74.84.84,0,0,1-.57.63A18.69,18.69,0,0,1,24.36,22.26Z"/></g></g></g></svg>