<svg xmlns="http://www.w3.org/2000/svg" viewBox="0 0 66.91 133.83"><defs><style>.cls-1{fill:#1780f1;}.cls-2{fill:#fff;}</style></defs><g id="Слой_2" data-name="Слой 2"><g id="Перемена_2021" data-name="Перемена 2021"><g id="Логотип"><rect class="cls-1" width="66.91" height="133.83"/><path class="cls-2" d="M15.35,119.23a1,1,0,0,0-.46.83,1.13,1.13,0,0,0,.37.85,1.29,1.29,0,0,0,.93.35,2,2,0,0,0,1.2-.41,1.43,1.43,0,0,0,.56-.78,4.6,4.6,0,0,0,.09-1.13v-.47c-.3.1-.77.22-1.42.36A4.45,4.45,0,0,0,15.35,119.23Z"/><path class="cls-2" d="M19.12,13.61H16.3c-.1,2.44-.49,4.1-1.17,5h4Z"/><path class="cls-2" d="M44.45,95.09a1.78,1.78,0,0,0-1.42.66,2.92,2.92,0,0,0-.57,2,3.44,3.44,0,0,0,.59,2.2,1.81,1.81,0,0,0,1.44.71,1.68,1.68,0,0,0,1.35-.66,3.35,3.35,0,0,0,.55-2.14,3.21,3.21,0,0,0-.56-2.06A1.71,1.71,0,0,0,44.45,95.09Z"/><path class="cls-2" d="M28,18.81a2,2,0,0,0,1.53-.69,3,3,0,0,0,.62-2,2.89,2.89,0,0,0-.62-2,2,2,0,0,0-1.53-.7,2,2,0,0,0-1.54.7,2.92,2.92,0,0,0-.62,2,2.93,2.93,0,0,0,.62,2A2,2,0,0,0,28,18.81Z"/><path class="cls-2" d="M15.35,57.92a1,1,0,0,0-.46.82,1.13,1.13,0,0,0,.37.85,1.26,1.26,0,0,0,.93.36,2,2,0,0,0,1.2-.42,1.45,1.45,0,0,0,.56-.77A4.7,4.7,0,0,0,18,57.62v-.47c-.3.1-.77.22-1.42.36A4.37,4.37,0,0,0,15.35,57.92Z"/><path class="cls-2" d="M26.88,54.21a1.8,1.8,0,0,0-1.43.66,3,3,0,0,0-.56,2,3.36,3.36,0,0,0,.59,2.2,1.81,1.81,0,0,0,1.44.71,1.69,1.69,0,0,0,1.35-.65A3.38,3.38,0,0,0,28.81,57a3.22,3.22,0,0,0-.55-2.07A1.74,1.74,0,0,0,26.88,54.21Z"/><path class="cls-2" d="M33.83,95.14a2,2,0,0,0-1.54.7,3.54,3.54,0,0,0,0,4,2,2,0,0,0,1.54.7,2,2,0,0,0,1.53-.7,3,3,0,0,0,.62-2,2.94,2.94,0,0,0-.62-2A2,2,0,0,0,33.83,95.14Z"/><path class="cls-2" d="M45,74.59a1.62,1.62,0,0,0-1.26.56,2.13,2.13,0,0,0-.49,1.51H46.7a2.26,2.26,0,0,0-.52-1.54A1.64,1.64,0,0,0,45,74.59Z"/><path class="cls-2" d="M0,0V133.83H66.91V0ZM34.12,14.93h4.59v2.34H34.12ZM32.78,55.81h4.59v2.33H32.78ZM24,13.73a4,4,0,0,1,1.63-1.67A4.84,4.84,0,0,1,28,11.49a4.38,4.38,0,0,1,3.28,1.3,4.48,4.48,0,0,1,1.29,3.29,4.55,4.55,0,0,1-1.3,3.32A4.35,4.35,0,0,1,28,20.72a5.11,5.11,0,0,1-2.32-.55A3.79,3.79,0,0,1,24,18.56,5.4,5.4,0,0,1,23.44,16,4.76,4.76,0,0,1,24,13.73Zm.82,68.1H22.58V73h2.25v5.55L28.42,73h2.3v8.83H28.47V76.19Zm5.28-21.46a3.35,3.35,0,0,1-2.62,1.22,2.92,2.92,0,0,1-1.33-.29,4.49,4.49,0,0,1-1.25-1v4.45H22.58V52.56h2.17v1.3a3.41,3.41,0,0,1,1.15-1.08,3.14,3.14,0,0,1,1.61-.42,3.4,3.4,0,0,1,2.61,1.21,4.89,4.89,0,0,1,1.07,3.36A5,5,0,0,1,30.11,60.37ZM23.42,41h-2V35.14L19.28,41h-2l-2.06-5.82V41h-2V32.13h2.89l2.2,6.15,2.21-6.15h2.88ZM17.71,54.44a2,2,0,0,0-1.26-.29,1.62,1.62,0,0,0-1,.25,1.68,1.68,0,0,0-.56.86l-2.12-.38A3.22,3.22,0,0,1,14,53a4.48,4.48,0,0,1,2.59-.62,5.72,5.72,0,0,1,2.33.37,2.36,2.36,0,0,1,1.08.94,4.82,4.82,0,0,1,.31,2.1l0,2.72a8.89,8.89,0,0,0,.12,1.72,4.74,4.74,0,0,0,.42,1.19H18.53c-.06-.16-.13-.39-.22-.69,0-.14-.07-.23-.08-.28A4.16,4.16,0,0,1,17,61.3a3.59,3.59,0,0,1-1.46.29,3,3,0,0,1-2.15-.73,2.63,2.63,0,0,1-.43-3.21,2.36,2.36,0,0,1,1-.9,7.54,7.54,0,0,1,1.86-.54A12.81,12.81,0,0,0,18,55.63V55.4A1.21,1.21,0,0,0,17.71,54.44ZM11.89,18.61h1a5.52,5.52,0,0,0,1-2.08,22.56,22.56,0,0,0,.46-4.84h7.13v6.92h.95v4.24H20.47V20.52H13.79v2.33h-1.9ZM12.18,73H15l1.57,2.43L18.24,73H21l-3,4.18,3.27,4.65H18.39L16.6,79.1l-1.82,2.73H12.05l3.18-4.55Zm4.05,23.69a4.52,4.52,0,0,0,.58-1.27,3.39,3.39,0,0,1,1-1.67,2.39,2.39,0,0,1,1.4-.37c.18,0,.49,0,.92,0V95a2.6,2.6,0,0,0-1.18.17,2.52,2.52,0,0,0-.56,1.09,2.18,2.18,0,0,1-1.17,1.51,3.17,3.17,0,0,1,1.87,1.92c0,.06.06.11.09.18l1.31,2.43H18L16.8,99.72a2.92,2.92,0,0,0-.62-1,1.2,1.2,0,0,0-.77-.22v3.77H13.08V93.44h2.33v3.61A1.23,1.23,0,0,0,16.23,96.69Zm2.3,26c-.06-.16-.13-.38-.22-.69l-.08-.27a4.54,4.54,0,0,1-1.28.87,3.77,3.77,0,0,1-1.46.29,3,3,0,0,1-2.15-.74,2.48,2.48,0,0,1-.79-1.87,2.51,2.51,0,0,1,.36-1.34,2.28,2.28,0,0,1,1-.89,7.94,7.94,0,0,1,1.86-.55A13,13,0,0,0,18,117v-.24a1.24,1.24,0,0,0-.33-1,2,2,0,0,0-1.26-.28,1.7,1.7,0,0,0-1,.24,1.72,1.72,0,0,0-.56.86l-2.12-.38a3.25,3.25,0,0,1,1.23-1.9,4.48,4.48,0,0,1,2.59-.61,5.55,5.55,0,0,1,2.33.37A2.36,2.36,0,0,1,20,115a4.8,4.8,0,0,1,.31,2.09l0,2.73a9,9,0,0,0,.12,1.72,4.68,4.68,0,0,0,.42,1.18ZM28.64,95.33H25.81v6.94H23.47V95.33H20.65V93.44h8Zm8.45,5.82a4.36,4.36,0,0,1-3.25,1.32,5.08,5.08,0,0,1-2.32-.55,3.74,3.74,0,0,1-1.68-1.61,5.35,5.35,0,0,1-.57-2.58,4.76,4.76,0,0,1,.57-2.25,4,4,0,0,1,1.63-1.67,4.84,4.84,0,0,1,2.35-.57,4.38,4.38,0,0,1,3.28,1.3,4.49,4.49,0,0,1,1.28,3.29A4.55,4.55,0,0,1,37.09,101.15Zm3-26.26H37.23v6.94H34.89V74.89H32.06V73h8Zm7.62,26.35a3.36,3.36,0,0,1-2.62,1.23,3,3,0,0,1-1.32-.29,4.43,4.43,0,0,1-1.26-1v4.45H40.15V93.44h2.18v1.3a3.11,3.11,0,0,1,1.14-1.08,3.17,3.17,0,0,1,1.61-.42,3.34,3.34,0,0,1,2.61,1.21,4.84,4.84,0,0,1,1.07,3.36A5,5,0,0,1,47.68,101.24Zm-4-21.53a1.79,1.79,0,0,0,1.35.58A1.41,1.41,0,0,0,46,80a1.86,1.86,0,0,0,.57-1l2.33.39a3.81,3.81,0,0,1-1.42,2,4.17,4.17,0,0,1-2.43.67,3.94,3.94,0,0,1-3.4-1.5,5,5,0,0,1-.88-3,4.82,4.82,0,0,1,1.15-3.43,3.77,3.77,0,0,1,2.9-1.25,3.94,3.94,0,0,1,3.11,1.3,5.78,5.78,0,0,1,1.09,4H43.17A2.35,2.35,0,0,0,43.73,79.71ZM54.94,99H50.35V96.68h4.59Zm.31-20.44H50.66V76.24h4.59Z"/></g></g></g></svg>